<svg xmlns="http://www.w3.org/2000/svg" viewBox="0 0 3312 1440"><path d="M 899.8 551.0 A 286.6 286.6 0 1 0 899.8 909.0" fill="none" stroke="#090911" stroke-width="77.8"/><circle cx="939" cy="732" r="77" fill="#DD033F"/><path d="M1659.0 923.0C1659.0 857.2 1659.0 856.7 1663.5 864.2C1665.9 868.3 1680.8 883.1 1684.9 885.6C1686.6 886.6 1688.0 887.8 1688.0 888.2C1688.0 888.6 1688.6 889.0 1689.4 889.0C1690.2 889.0 1691.0 889.3 1691.2 889.8C1691.7 890.9 1701.7 895.5 1708.5 897.8C1720.3 901.7 1725.8 902.4 1742.0 902.4C1756.2 902.3 1763.9 901.7 1769.0 900.0C1770.4 899.6 1773.5 898.7 1776.0 897.9C1778.5 897.2 1780.9 896.3 1781.5 895.8C1782.0 895.4 1783.0 895.0 1783.8 895.0C1787.2 895.0 1809.8 882.3 1810.8 879.8C1811.0 879.4 1811.7 879.0 1812.3 879.0C1814.3 879.0 1829.4 862.5 1832.4 857.1C1832.9 856.2 1833.6 855.3 1834.0 855.0C1834.4 854.7 1835.7 852.5 1837.1 850.0C1838.4 847.5 1839.7 845.3 1840.0 845.0C1841.2 843.8 1843.0 839.9 1843.0 838.5C1843.0 837.7 1843.4 837.0 1844.0 837.0C1845.6 837.0 1850.8 817.6 1852.1 806.5C1854.5 785.3 1854.3 778.3 1850.9 763.2C1848.7 753.1 1847.8 749.4 1847.1 747.5C1845.2 742.7 1836.6 725.5 1835.8 725.2C1835.4 725.0 1835.0 724.3 1835.0 723.8C1835.0 720.8 1820.2 704.2 1812.0 698.0C1810.2 696.6 1807.6 694.5 1806.1 693.3C1804.7 692.0 1803.0 691.0 1802.3 691.0C1801.7 691.0 1801.0 690.7 1800.8 690.2C1800.4 689.2 1788.0 683.0 1786.3 683.0C1785.6 683.0 1784.1 682.5 1783.0 682.0C1781.9 681.4 1780.1 680.5 1779.0 680.0C1777.9 679.4 1775.9 679.0 1774.6 679.0C1773.2 679.0 1771.9 678.6 1771.6 678.1C1770.1 675.7 1736.3 674.8 1726.0 676.8C1723.0 677.4 1718.8 678.2 1716.7 678.6C1714.7 678.9 1712.7 679.6 1712.4 680.1C1712.1 680.6 1711.0 681.0 1709.9 681.0C1708.9 681.0 1707.2 681.4 1706.2 681.9C1705.3 682.4 1702.0 684.0 1699.0 685.4C1687.9 690.7 1683.2 693.9 1675.6 701.6C1668.9 708.3 1664.0 714.1 1664.0 715.3C1664.0 716.0 1663.1 717.1 1662.1 717.7C1659.2 719.5 1659.0 718.0 1659.0 698.4L1659.0 681.0L1642.8 681.2L1626.5 681.5L1626.2 832.0C1626.1 914.8 1626.2 983.1 1626.5 983.8C1626.8 984.7 1631.1 985.0 1643.0 985.0L1659.0 985.0L1659.0 923.0ZM1441.0 901.1C1444.6 900.5 1449.5 899.6 1452.0 899.0C1454.5 898.4 1458.0 897.6 1459.8 897.3C1461.6 897.0 1463.3 896.4 1463.6 895.9C1463.9 895.4 1465.0 895.0 1466.1 895.0C1467.1 895.0 1468.9 894.5 1470.0 894.0C1471.1 893.5 1472.9 892.5 1474.0 892.0C1475.1 891.5 1476.5 891.0 1477.0 891.0C1477.6 891.0 1480.0 890.1 1482.2 889.0C1484.5 887.9 1487.0 887.0 1487.7 887.0C1488.4 887.0 1489.0 886.5 1489.0 886.0C1489.0 885.5 1489.9 885.0 1491.0 885.0C1492.1 885.0 1493.0 884.6 1493.0 884.1C1493.0 883.6 1493.8 883.0 1494.8 882.7C1497.0 882.0 1501.9 879.0 1504.4 876.8C1505.5 875.8 1507.0 875.0 1507.7 875.0C1508.4 875.0 1509.0 874.6 1509.0 874.2C1509.0 873.8 1510.4 872.6 1512.0 871.6C1513.7 870.7 1516.1 868.9 1517.3 867.7C1518.5 866.5 1521.5 863.9 1524.0 862.0C1529.5 857.8 1529.4 857.8 1535.0 851.0C1537.5 848.0 1540.5 844.5 1541.7 843.3C1542.9 842.1 1544.7 839.7 1545.6 838.0C1546.6 836.4 1547.8 835.0 1548.2 835.0C1548.6 835.0 1549.0 834.4 1549.0 833.7C1549.0 833.0 1549.9 831.4 1551.0 830.2C1552.1 829.0 1553.0 827.4 1553.0 826.6C1553.0 825.8 1553.3 825.0 1553.8 824.8C1554.8 824.4 1563.0 807.8 1563.0 806.2C1563.0 805.6 1563.5 805.0 1564.0 805.0C1564.5 805.0 1565.0 804.1 1565.0 803.1C1565.0 802.0 1565.5 800.8 1566.0 800.5C1566.5 800.2 1567.0 798.8 1567.0 797.4C1567.0 796.1 1567.5 795.0 1568.0 795.0C1568.5 795.0 1569.0 793.7 1569.0 792.1C1569.0 790.4 1569.5 788.8 1570.0 788.5C1570.5 788.2 1571.0 786.4 1571.0 784.6C1571.0 782.9 1571.4 781.0 1571.9 780.5C1572.8 779.5 1573.2 777.0 1575.0 759.5C1576.7 742.5 1576.0 726.2 1572.9 711.5C1572.4 708.8 1571.6 705.0 1571.3 703.2C1571.0 701.4 1570.4 699.7 1569.9 699.4C1569.4 699.1 1569.0 697.8 1569.0 696.5C1569.0 694.1 1568.4 692.4 1564.9 684.3C1563.8 681.9 1563.0 679.7 1563.0 679.2C1563.0 678.3 1559.9 671.4 1556.8 665.5C1555.6 663.3 1554.2 660.5 1553.6 659.3C1553.0 658.0 1552.2 657.0 1551.8 657.0C1551.3 657.0 1551.0 656.4 1551.0 655.8C1551.0 655.1 1549.9 653.2 1548.5 651.6C1547.1 650.0 1546.0 648.3 1546.0 647.9C1546.0 647.5 1545.0 646.1 1543.7 644.8C1542.5 643.5 1540.3 640.9 1539.0 639.0C1535.8 634.5 1523.5 622.2 1519.0 619.0C1517.1 617.6 1514.2 615.3 1512.6 613.8C1511.0 612.2 1509.1 611.0 1508.4 611.0C1507.6 611.0 1507.0 610.6 1507.0 610.2C1507.0 609.3 1493.5 601.0 1492.1 601.0C1491.6 601.0 1491.0 600.7 1490.8 600.2C1490.4 599.2 1482.1 595.0 1480.5 595.0C1479.8 595.0 1479.0 594.7 1478.8 594.2C1478.4 593.2 1460.9 587.6 1453.5 586.1C1450.2 585.4 1445.9 584.5 1444.0 584.0C1425.2 579.4 1387.2 581.1 1370.0 587.3C1367.5 588.2 1364.5 589.0 1363.3 589.0C1362.1 589.0 1360.8 589.5 1360.5 590.0C1360.2 590.5 1359.0 591.0 1357.9 591.0C1356.9 591.0 1355.1 591.4 1354.0 592.0C1352.9 592.5 1351.1 593.5 1350.0 594.0C1348.9 594.5 1347.3 595.0 1346.5 595.0C1345.7 595.0 1345.0 595.5 1345.0 596.0C1345.0 596.5 1344.4 597.0 1343.7 597.0C1341.9 597.0 1337.0 599.4 1337.0 600.2C1337.0 600.7 1336.1 601.0 1335.0 601.0C1333.9 601.0 1333.0 601.4 1333.0 601.9C1333.0 602.4 1332.2 603.0 1331.2 603.3C1329.0 604.0 1324.1 607.0 1321.6 609.2C1320.5 610.2 1319.2 611.0 1318.7 611.0C1318.2 611.0 1317.0 611.8 1316.1 612.8C1315.2 613.8 1312.9 615.7 1311.0 617.0C1306.7 620.0 1294.5 632.2 1290.7 637.3C1289.1 639.4 1286.8 642.1 1285.4 643.5C1284.1 644.8 1283.0 646.3 1283.0 646.7C1283.0 647.1 1281.6 649.1 1280.0 651.0C1278.4 652.9 1277.0 655.1 1277.0 655.8C1277.0 656.4 1276.7 657.0 1276.2 657.0C1275.8 657.0 1275.0 658.0 1274.5 659.3C1272.3 663.9 1268.5 670.5 1267.8 670.8C1267.3 671.0 1267.0 672.0 1267.0 673.1C1267.0 674.1 1266.5 675.0 1266.0 675.0C1265.5 675.0 1265.0 675.7 1265.0 676.5C1265.0 678.0 1264.6 679.0 1262.2 683.7C1261.5 685.0 1261.0 687.1 1261.0 688.5C1261.0 689.9 1260.5 691.0 1260.0 691.0C1259.5 691.0 1259.0 692.3 1259.0 693.9C1259.0 695.6 1258.6 697.1 1258.1 697.4C1257.6 697.7 1257.0 699.2 1256.7 700.7C1256.3 702.3 1255.6 705.8 1255.0 708.5C1252.5 719.8 1251.6 730.3 1251.6 745.5C1251.7 762.5 1252.7 773.7 1254.1 774.6C1254.6 774.9 1255.0 776.7 1255.0 778.6C1255.0 780.5 1255.4 782.8 1255.9 783.8C1256.4 784.7 1257.7 788.6 1258.9 792.5C1261.1 799.3 1262.3 802.7 1264.1 806.2C1264.6 807.2 1265.0 808.7 1265.0 809.5C1265.0 810.3 1265.5 811.0 1266.0 811.0C1266.5 811.0 1267.0 811.9 1267.0 813.0C1267.0 814.1 1267.5 815.0 1268.0 815.0C1268.5 815.0 1269.0 815.9 1269.0 817.0C1269.0 818.1 1269.4 819.0 1269.9 819.0C1270.4 819.0 1271.0 819.8 1271.3 820.8C1272.1 823.1 1275.3 828.4 1276.2 828.8C1276.7 829.0 1277.0 829.7 1277.0 830.3C1277.0 831.0 1278.1 832.8 1279.5 834.4C1280.9 836.0 1282.0 837.6 1282.0 838.0C1282.0 838.4 1283.5 840.4 1285.2 842.3C1287.0 844.3 1290.5 848.3 1293.0 851.2C1295.4 854.2 1299.8 858.6 1302.8 861.0C1305.7 863.5 1309.8 867.0 1311.7 868.8C1313.7 870.6 1316.6 872.8 1318.2 873.8C1319.7 874.7 1321.0 875.8 1321.0 876.2C1321.0 876.6 1321.9 877.0 1323.0 877.0C1324.1 877.0 1325.0 877.3 1325.0 877.8C1325.0 878.6 1324.9 878.5 1339.7 885.9C1345.4 888.7 1350.6 891.0 1351.5 891.0C1352.3 891.0 1353.0 891.3 1353.0 891.8C1353.0 892.2 1356.5 893.6 1360.8 894.9C1365.0 896.1 1369.4 897.6 1370.5 898.0C1372.5 898.9 1374.9 899.3 1386.8 900.9C1390.3 901.4 1393.4 902.1 1393.8 902.4C1394.8 903.4 1433.3 902.4 1441.0 901.1ZM2030.5 901.2C2042.6 898.7 2050.5 895.9 2062.6 889.9C2068.1 887.2 2073.5 884.2 2074.6 883.2C2075.6 882.3 2078.1 880.3 2080.1 878.8C2085.2 875.0 2091.1 869.1 2094.0 865.0C2095.3 863.1 2097.2 860.6 2098.2 859.6C2099.2 858.5 2100.0 857.2 2100.0 856.7C2100.0 855.3 2097.3 853.0 2095.6 853.0C2094.7 853.0 2094.0 852.7 2094.0 852.2C2094.0 851.8 2091.9 850.4 2089.2 849.0C2086.6 847.7 2084.3 846.3 2084.0 846.0C2083.7 845.7 2081.3 844.3 2078.5 842.8L2073.5 840.1L2065.5 848.4C2057.8 856.3 2049.3 863.0 2047.1 863.0C2046.5 863.0 2046.0 863.5 2046.0 864.0C2046.0 864.5 2045.1 865.0 2044.1 865.0C2043.0 865.0 2041.9 865.4 2041.6 865.8C2041.1 866.6 2031.8 869.7 2023.4 871.9C2017.9 873.4 1996.3 873.3 1990.3 871.8C1979.8 869.3 1965.7 864.0 1964.0 861.9C1963.7 861.6 1962.4 860.7 1961.1 860.0C1957.2 858.0 1950.1 851.6 1945.0 845.5C1941.9 841.8 1936.0 832.2 1936.0 830.9C1936.0 830.4 1935.6 829.2 1935.1 828.2C1932.3 822.7 1930.5 815.9 1929.5 807.4C1928.5 798.1 1918.7 799.0 2019.8 799.0L2109.3 799.0L2108.6 780.3C2108.2 769.9 2107.5 761.1 2107.0 760.6C2106.4 760.0 2106.0 757.7 2106.0 755.3C2106.0 752.9 2105.6 751.0 2105.0 751.0C2104.4 751.0 2104.0 749.7 2104.0 748.1C2104.0 746.4 2103.6 744.8 2103.0 744.5C2102.4 744.2 2102.0 742.8 2102.0 741.4C2102.0 740.1 2101.6 739.0 2101.0 739.0C2100.4 739.0 2100.0 738.2 2100.0 737.2C2100.0 736.3 2098.6 732.8 2096.9 729.5C2095.2 726.2 2093.3 722.5 2092.6 721.3C2092.0 720.0 2091.2 719.0 2090.8 719.0C2090.3 719.0 2090.0 718.4 2090.0 717.7C2090.0 714.7 2072.9 697.1 2066.8 693.9C2065.5 693.2 2064.3 692.4 2064.0 692.1C2063.2 691.1 2058.0 688.2 2052.0 685.4C2049.0 684.0 2045.7 682.4 2044.8 681.9C2043.8 681.4 2042.1 681.0 2041.1 681.0C2040.0 681.0 2038.9 680.6 2038.6 680.1C2038.3 679.6 2036.6 679.0 2034.8 678.7C2033.0 678.4 2028.6 677.5 2025.0 676.8C2014.0 674.6 1979.0 675.6 1977.4 678.1C1977.1 678.6 1975.6 679.0 1974.0 679.0C1972.4 679.0 1970.8 679.4 1970.5 680.0C1970.2 680.5 1968.8 681.0 1967.5 681.0C1966.2 681.0 1964.8 681.4 1964.5 682.0C1964.2 682.5 1963.1 683.0 1962.2 683.0C1959.1 683.1 1942.1 692.1 1938.3 695.7C1937.1 696.9 1934.3 699.1 1932.3 700.7C1927.8 704.0 1923.7 708.1 1920.1 713.0C1918.7 714.9 1917.0 717.1 1916.3 717.8C1915.6 718.5 1914.3 720.4 1913.3 722.0C1912.4 723.7 1911.2 725.0 1910.8 725.0C1910.4 725.0 1910.0 725.9 1910.0 726.9C1910.0 728.0 1909.7 729.0 1909.2 729.2C1908.1 729.7 1904.0 737.6 1904.0 739.3C1904.0 740.1 1903.6 741.0 1903.2 741.2C1901.8 741.7 1898.5 752.7 1895.8 765.5C1894.3 772.7 1893.6 807.0 1894.9 808.3C1895.5 808.9 1896.0 811.3 1896.0 813.6C1896.0 816.0 1896.5 818.2 1897.0 818.5C1897.5 818.8 1898.0 820.9 1898.0 823.1C1898.0 825.2 1898.5 827.0 1899.0 827.0C1899.5 827.0 1900.0 828.4 1900.0 830.0C1900.0 831.6 1900.5 833.0 1901.0 833.0C1901.5 833.0 1902.0 834.1 1902.0 835.4C1902.0 836.8 1902.5 838.2 1903.0 838.5C1903.5 838.8 1904.0 840.0 1904.0 841.1C1904.0 842.1 1904.5 843.0 1905.0 843.0C1905.5 843.0 1906.0 843.9 1906.0 845.0C1906.0 846.1 1906.4 847.0 1906.9 847.0C1907.4 847.0 1908.0 847.8 1908.3 848.8C1908.9 850.6 1912.1 856.1 1913.0 857.0C1913.3 857.3 1914.7 859.1 1916.0 861.0C1919.0 865.4 1931.4 877.8 1936.0 881.0C1937.9 882.3 1940.4 884.2 1941.4 885.2C1942.5 886.2 1943.9 887.0 1944.6 887.0C1945.3 887.0 1946.0 887.3 1946.2 887.8C1946.6 888.8 1954.9 893.0 1956.6 893.0C1957.4 893.0 1958.0 893.5 1958.0 894.0C1958.0 894.5 1959.0 895.0 1960.3 895.0C1961.6 895.0 1963.0 895.4 1963.5 895.8C1964.1 896.3 1966.5 897.2 1969.0 897.9C1971.5 898.6 1974.9 899.6 1976.6 900.1C1978.3 900.6 1981.0 901.0 1982.6 901.0C1984.2 901.0 1986.2 901.5 1987.0 902.0C1988.9 903.3 2023.5 902.6 2030.5 901.2ZM2194.4 893.8C2194.7 890.9 2195.0 863.1 2195.1 832.0C2195.1 800.9 2195.5 772.1 2196.0 768.0C2197.4 756.6 2198.1 753.0 2199.1 753.0C2199.6 753.0 2200.0 751.9 2200.0 750.6C2200.0 749.2 2200.4 747.8 2201.0 747.5C2201.6 747.2 2202.0 746.0 2202.0 744.9C2202.0 743.9 2202.4 743.0 2202.9 743.0C2203.4 743.0 2204.0 742.2 2204.3 741.2C2205.4 737.8 2208.6 733.4 2214.5 727.4C2220.4 721.4 2228.9 715.0 2230.9 715.0C2231.5 715.0 2232.0 714.5 2232.0 714.0C2232.0 713.5 2232.9 713.0 2234.0 713.0C2235.1 713.0 2236.0 712.5 2236.0 712.0C2236.0 711.5 2236.9 711.0 2237.9 711.0C2239.0 711.0 2240.2 710.5 2240.5 710.0C2240.8 709.5 2242.0 709.0 2243.1 709.0C2244.1 709.0 2245.8 708.6 2246.8 708.1C2250.2 706.3 2262.7 704.8 2269.6 705.3C2280.5 706.3 2292.0 708.7 2292.0 710.1C2292.0 710.6 2292.9 711.0 2294.0 711.0C2295.1 711.0 2296.0 711.3 2296.0 711.8C2296.0 712.2 2297.5 713.2 2299.2 713.9C2303.5 715.8 2315.2 727.5 2317.1 731.8C2317.8 733.5 2318.8 735.0 2319.2 735.0C2319.7 735.0 2320.0 735.6 2320.0 736.3C2320.0 737.1 2320.8 739.2 2321.7 741.0C2326.2 750.0 2326.8 762.0 2326.9 836.8L2327.0 899.0L2343.5 899.0L2360.0 899.0L2359.7 823.8C2359.4 769.8 2359.0 746.9 2358.1 743.0C2357.5 740.0 2356.7 736.0 2356.3 734.2C2356.0 732.4 2355.4 730.7 2354.9 730.4C2354.4 730.1 2354.0 728.8 2354.0 727.5C2354.0 726.2 2353.6 724.8 2353.0 724.5C2352.4 724.2 2352.0 722.8 2352.0 721.4C2352.0 720.1 2351.6 719.0 2351.0 719.0C2350.4 719.0 2350.0 718.1 2350.0 717.0C2350.0 715.9 2349.6 715.0 2349.0 715.0C2348.4 715.0 2348.0 714.1 2348.0 713.0C2348.0 711.9 2347.6 711.0 2347.1 711.0C2346.6 711.0 2345.8 710.0 2345.4 708.8C2344.5 705.9 2327.6 689.0 2325.6 689.0C2324.8 689.0 2324.0 688.6 2323.8 688.2C2323.5 687.4 2313.7 682.5 2307.7 680.1C2306.2 679.5 2303.8 679.0 2302.5 679.0C2301.2 679.0 2299.9 678.6 2299.6 678.1C2298.6 676.6 2288.9 675.7 2274.0 675.7C2258.8 675.8 2250.1 676.6 2248.5 678.1C2248.0 678.6 2246.3 679.0 2244.8 679.0C2243.3 679.0 2242.0 679.5 2242.0 680.0C2242.0 680.5 2241.4 681.0 2240.6 681.0C2238.7 681.0 2227.0 687.0 2224.6 689.2C2223.5 690.2 2222.3 691.0 2221.8 691.0C2219.5 691.0 2200.0 710.9 2200.0 713.3C2200.0 714.7 2197.1 717.2 2196.1 716.6C2195.7 716.3 2195.1 709.4 2195.0 701.3C2194.9 693.1 2194.7 685.1 2194.6 683.5L2194.5 680.5L2185.0 679.7C2179.8 679.3 2172.6 679.1 2169.0 679.2L2162.5 679.5L2162.2 789.2L2162.0 899.0L2177.9 899.0L2193.7 899.0L2194.4 893.8ZM2599.0 897.2C2610.1 895.3 2612.4 894.9 2614.5 894.1C2615.6 893.6 2618.3 892.7 2620.5 892.1C2637.0 887.1 2652.6 876.5 2663.7 862.8C2666.5 859.3 2672.6 847.4 2674.4 841.8C2678.1 830.1 2678.5 827.2 2678.4 810.5C2678.4 794.7 2678.2 793.0 2675.7 785.7C2672.7 777.1 2668.6 768.4 2666.4 766.2C2665.6 765.5 2665.0 764.5 2665.0 764.1C2665.0 761.2 2648.2 747.6 2640.5 744.1C2638.8 743.4 2636.7 742.4 2635.8 741.9C2634.8 741.4 2633.4 741.0 2632.7 741.0C2632.0 741.0 2630.2 740.4 2628.7 739.8C2625.7 738.3 2625.0 735.0 2627.8 735.0C2630.0 735.0 2635.0 732.8 2635.0 731.8C2635.0 731.3 2635.7 731.0 2636.5 731.0C2637.3 731.0 2638.0 730.5 2638.0 730.0C2638.0 729.5 2638.7 729.0 2639.5 729.0C2640.3 729.0 2641.0 728.5 2641.0 728.0C2641.0 727.5 2641.5 727.0 2642.0 727.0C2643.1 727.0 2648.2 722.8 2651.1 719.5C2656.6 713.3 2658.1 711.1 2661.1 705.1C2664.6 697.9 2665.1 696.8 2667.1 690.0C2669.0 684.0 2669.0 658.1 2667.2 652.0C2666.4 649.5 2665.3 645.7 2664.7 643.5C2663.6 639.7 2656.3 624.1 2655.1 623.0C2654.7 622.7 2653.0 620.5 2651.1 618.0C2649.2 615.5 2645.5 611.7 2642.8 609.5C2640.1 607.3 2637.3 605.0 2636.6 604.5C2633.3 601.8 2620.1 595.1 2617.9 595.0C2617.1 595.0 2616.0 594.6 2615.4 594.2C2614.1 593.0 2601.9 589.7 2594.0 588.3C2591.5 587.9 2557.8 587.6 2519.0 587.5L2448.5 587.5L2448.2 742.0C2448.1 827.0 2448.2 897.1 2448.5 897.8C2449.1 899.4 2588.8 898.9 2599.0 897.2ZM2792.4 897.5C2793.3 895.2 2793.1 589.6 2792.2 588.2C2791.5 587.3 2784.8 587.0 2761.9 587.2L2732.5 587.5L2732.2 741.0C2732.1 825.4 2732.2 895.5 2732.5 896.8L2733.0 899.0L2762.4 899.0C2787.5 899.0 2791.9 898.8 2792.4 897.5ZM1409.0 872.4C1408.2 872.2 1403.5 871.6 1398.5 871.0C1387.2 869.8 1383.0 869.1 1380.5 868.1C1379.4 867.6 1376.7 866.7 1374.5 866.1C1368.9 864.4 1367.8 863.9 1355.8 857.9C1349.8 855.0 1345.0 852.3 1345.0 851.9C1345.0 851.5 1343.7 850.7 1342.0 850.0C1340.3 849.3 1339.0 848.5 1339.0 848.1C1339.0 847.7 1337.6 846.6 1336.0 845.6C1332.2 843.4 1318.3 829.7 1315.0 825.0C1313.7 823.1 1311.8 820.8 1310.8 819.9C1309.8 819.0 1309.0 817.8 1309.0 817.3C1309.0 816.8 1308.2 815.5 1307.2 814.4C1305.4 812.4 1302.7 807.7 1299.0 800.0C1297.7 797.5 1296.4 794.7 1295.9 793.8C1295.4 792.8 1295.0 791.3 1295.0 790.5C1295.0 789.7 1294.5 789.0 1294.0 789.0C1293.5 789.0 1293.0 787.6 1293.0 786.0C1293.0 784.4 1292.6 783.0 1292.1 783.0C1291.2 783.0 1290.5 779.7 1289.4 771.5C1289.1 769.3 1288.4 766.6 1287.9 765.5C1287.3 764.3 1287.1 755.2 1287.4 742.5C1287.9 720.1 1288.6 711.0 1290.1 711.0C1290.6 711.0 1291.0 709.2 1291.0 707.0C1291.0 704.8 1291.5 703.0 1292.0 703.0C1292.5 703.0 1293.0 701.9 1293.0 700.6C1293.0 699.2 1293.5 697.8 1294.0 697.5C1294.5 697.2 1295.0 695.8 1295.0 694.5C1295.0 693.2 1295.5 691.8 1296.0 691.5C1296.5 691.2 1297.0 690.0 1297.0 688.9C1297.0 687.9 1297.5 687.0 1298.0 687.0C1298.5 687.0 1299.0 686.1 1299.0 685.0C1299.0 683.9 1299.5 683.0 1300.0 683.0C1300.5 683.0 1301.0 682.1 1301.0 681.0C1301.0 679.9 1301.4 679.0 1301.9 679.0C1302.4 679.0 1303.0 678.2 1303.3 677.2C1303.9 675.4 1307.1 669.9 1308.0 669.0C1308.3 668.7 1309.7 666.9 1311.0 665.0C1312.3 663.1 1314.1 660.8 1315.0 660.0C1315.8 659.2 1317.7 656.9 1319.1 655.0C1322.4 650.7 1332.0 641.0 1333.2 641.0C1333.6 641.0 1335.4 639.7 1337.2 638.0C1338.9 636.4 1340.9 635.0 1341.6 635.0C1342.4 635.0 1343.0 634.6 1343.0 634.2C1343.0 633.7 1344.2 632.7 1345.8 631.9C1347.3 631.1 1348.7 630.3 1349.0 630.0C1350.2 628.8 1358.3 625.0 1359.6 625.0C1360.4 625.0 1361.0 624.5 1361.0 624.0C1361.0 623.5 1361.9 623.0 1362.9 623.0C1364.0 623.0 1365.2 622.5 1365.5 622.0C1365.8 621.4 1367.2 621.0 1368.6 621.0C1369.9 621.0 1371.0 620.5 1371.0 620.0C1371.0 619.5 1372.3 619.0 1374.0 619.0C1375.7 619.0 1377.0 618.6 1377.0 618.1C1377.0 617.6 1378.5 617.0 1380.2 616.7C1382.0 616.3 1386.0 615.5 1389.0 614.9C1392.3 614.2 1402.6 613.7 1414.5 613.7C1434.4 613.7 1442.6 614.4 1444.5 616.1C1445.0 616.6 1446.3 617.0 1447.4 617.0C1452.7 617.0 1479.7 628.4 1483.0 632.0C1483.3 632.3 1485.1 633.7 1487.0 635.0C1488.9 636.3 1490.7 637.7 1491.0 638.0C1491.3 638.3 1493.3 639.9 1495.5 641.5C1500.1 644.9 1506.5 651.4 1511.9 658.0C1513.9 660.5 1516.1 663.1 1516.8 663.8C1517.4 664.5 1518.0 665.5 1518.0 666.0C1518.0 666.5 1518.6 667.5 1519.3 668.2C1520.0 668.9 1521.7 671.5 1523.1 674.0C1524.4 676.5 1525.7 678.7 1526.0 679.0C1527.0 680.0 1533.0 693.7 1533.0 695.0C1533.0 695.6 1533.4 696.8 1533.9 697.8C1535.1 700.0 1537.9 710.7 1539.9 720.8C1541.3 727.7 1541.3 756.3 1539.9 763.2C1536.8 778.7 1533.3 789.1 1527.6 800.5C1524.9 806.0 1522.3 810.7 1522.0 811.0C1521.6 811.3 1520.7 812.6 1520.0 813.9C1519.3 815.3 1518.4 816.9 1517.9 817.4C1517.4 818.0 1514.4 821.9 1511.1 826.1C1504.2 834.8 1499.2 839.5 1486.9 848.8C1483.8 851.1 1480.8 853.0 1480.2 853.0C1479.5 853.0 1479.0 853.3 1479.0 853.8C1479.0 854.2 1475.1 856.5 1470.2 858.9C1453.0 867.5 1447.3 869.1 1427.0 871.5C1414.4 872.9 1411.8 873.1 1409.0 872.4ZM1724.0 871.8C1713.8 869.7 1709.7 868.4 1703.5 865.3C1696.0 861.6 1691.8 858.9 1688.7 856.0C1686.9 854.3 1685.2 853.0 1684.8 853.0C1684.4 853.0 1681.6 849.7 1678.6 845.8C1675.5 841.8 1672.6 838.0 1672.2 837.5C1671.8 837.0 1670.0 833.6 1668.3 830.0C1657.9 808.7 1656.2 782.3 1663.6 760.2C1669.6 742.6 1684.6 723.1 1696.2 717.8C1697.8 717.1 1699.0 716.2 1699.0 715.8C1699.0 715.3 1699.9 715.0 1701.0 715.0C1702.1 715.0 1703.0 714.5 1703.0 714.0C1703.0 713.5 1703.7 713.0 1704.5 713.0C1705.3 713.0 1706.9 712.5 1708.0 712.0C1709.1 711.5 1710.9 710.5 1712.0 710.0C1713.1 709.5 1714.9 709.0 1715.9 709.0C1717.0 709.0 1718.1 708.6 1718.4 708.1C1720.4 704.8 1761.6 704.9 1763.6 708.1C1763.9 708.6 1765.2 709.0 1766.5 709.0C1767.8 709.0 1769.2 709.5 1769.5 710.0C1769.8 710.5 1771.0 711.0 1772.1 711.0C1773.1 711.0 1774.0 711.5 1774.0 712.0C1774.0 712.5 1774.9 713.0 1776.0 713.0C1777.1 713.0 1778.0 713.3 1778.0 713.8C1778.0 714.2 1779.4 715.1 1781.2 715.9C1785.6 717.9 1787.3 719.3 1796.5 728.6C1800.9 733.0 1805.4 738.4 1806.5 740.6C1807.6 742.7 1808.7 744.7 1809.0 745.0C1810.5 746.5 1814.3 757.1 1817.1 767.5C1818.9 774.2 1818.9 800.0 1817.2 806.0C1813.4 818.8 1811.6 824.1 1808.8 830.2C1807.0 834.0 1805.3 837.0 1804.9 837.0C1804.5 837.0 1803.9 837.8 1803.5 838.9C1802.8 841.4 1790.6 853.9 1784.8 858.3C1769.7 869.6 1742.4 875.7 1724.0 871.8ZM2505.6 847.5C2504.7 845.0 2504.9 765.7 2505.8 764.2C2506.5 763.2 2514.7 763.0 2545.1 763.3C2582.5 763.7 2591.5 764.2 2593.4 766.1C2594.0 766.6 2595.2 767.0 2596.1 767.0C2601.7 767.0 2614.8 778.1 2618.7 786.0C2622.2 793.3 2623.0 796.9 2623.0 805.4C2623.0 825.7 2614.1 838.7 2595.5 845.5C2589.6 847.7 2580.0 848.3 2544.9 848.7C2510.0 849.0 2506.2 848.9 2505.6 847.5ZM1929.9 771.8C1929.5 768.6 1930.3 762.4 1931.1 761.5C1931.6 761.0 1932.0 759.4 1932.0 758.0C1932.0 756.6 1932.4 755.0 1932.8 754.5C1933.3 753.9 1934.3 751.6 1935.0 749.2C1935.7 746.9 1936.7 745.0 1937.2 745.0C1937.6 745.0 1938.0 744.1 1938.0 743.0C1938.0 741.9 1938.4 741.0 1938.8 741.0C1939.3 741.0 1940.2 739.9 1940.8 738.6C1942.8 734.1 1954.6 721.0 1956.6 721.0C1957.4 721.0 1958.0 720.6 1958.0 720.2C1958.0 719.7 1959.2 718.7 1960.8 717.9C1962.3 717.1 1963.7 716.3 1964.0 716.0C1965.3 714.6 1977.5 709.0 1979.1 709.0C1980.1 709.0 1981.1 708.6 1981.4 708.1C1982.5 706.5 1989.4 705.7 2004.0 705.8C2019.4 705.8 2028.0 706.6 2028.0 708.1C2028.0 708.6 2029.1 709.0 2030.4 709.0C2031.8 709.0 2033.2 709.5 2033.5 710.0C2033.8 710.5 2035.0 711.0 2036.1 711.0C2037.1 711.0 2038.0 711.5 2038.0 712.0C2038.0 712.5 2038.9 713.0 2040.0 713.0C2041.1 713.0 2042.0 713.5 2042.0 714.0C2042.0 714.5 2042.6 715.0 2043.2 715.0C2046.9 715.1 2065.9 734.1 2066.0 737.8C2066.0 738.4 2066.3 739.0 2066.8 739.0C2067.2 739.0 2068.1 740.5 2068.9 742.2C2069.6 744.0 2070.9 747.1 2071.8 749.0C2073.7 753.2 2075.0 758.8 2075.7 765.2C2076.6 773.6 2082.4 773.0 2001.6 773.0C1945.1 773.0 1930.0 772.7 1929.9 771.8ZM2505.7 715.7C2504.6 712.9 2504.9 642.0 2506.0 639.9C2507.1 637.9 2507.7 637.9 2544.8 638.3C2573.1 638.6 2583.4 639.0 2586.0 640.0C2594.1 643.1 2595.0 643.5 2595.0 644.2C2595.0 644.7 2595.6 645.0 2596.4 645.0C2598.8 645.0 2607.8 654.6 2610.2 659.7C2612.9 665.5 2614.0 682.9 2612.0 688.3C2608.0 698.8 2601.5 707.3 2595.0 710.2C2593.4 710.9 2592.0 711.8 2592.0 712.2C2592.0 712.7 2590.9 713.0 2589.6 713.0C2588.2 713.0 2586.9 713.4 2586.6 713.9C2585.4 715.7 2576.7 716.2 2541.9 716.7C2512.9 717.0 2506.1 716.8 2505.7 715.7Z" fill="#090911" fill-rule="evenodd"/><path d="M1273.6 1101.8C1274.1 1101.1 1274.3 1092.6 1274.0 1083.0C1273.5 1065.8 1273.5 1065.5 1271.2 1065.2L1269.0 1064.9L1269.0 1083.9C1269.0 1101.9 1269.1 1103.0 1270.9 1103.0C1271.9 1103.0 1273.2 1102.4 1273.6 1101.8ZM1321.0 1101.5C1321.8 1100.5 1322.1 1096.4 1321.8 1088.0C1321.5 1074.8 1322.5 1072.6 1325.7 1080.0C1326.7 1082.2 1327.8 1084.0 1328.2 1084.0C1328.7 1084.0 1329.0 1084.5 1329.0 1085.1C1329.0 1086.0 1334.5 1094.8 1335.9 1096.0C1336.2 1096.3 1337.1 1097.7 1337.9 1099.2C1339.2 1101.8 1342.5 1103.4 1344.2 1102.4C1344.6 1102.1 1345.0 1093.6 1345.0 1083.4C1345.0 1065.7 1344.9 1065.0 1343.0 1065.0C1341.2 1065.0 1341.0 1065.7 1340.8 1073.2C1340.6 1077.8 1340.6 1083.6 1340.7 1086.2C1340.7 1088.9 1340.4 1091.0 1339.9 1091.0C1338.9 1091.0 1331.0 1079.5 1331.0 1078.1C1331.0 1077.5 1330.5 1077.0 1330.0 1077.0C1329.5 1077.0 1329.0 1076.3 1329.0 1075.5C1329.0 1074.7 1328.5 1074.0 1328.0 1074.0C1327.5 1074.0 1327.0 1073.5 1327.0 1073.0C1327.0 1072.4 1326.0 1070.4 1324.8 1068.5C1322.9 1065.6 1322.0 1065.0 1319.7 1065.2L1316.8 1065.5L1316.9 1083.3C1316.9 1093.1 1317.2 1101.5 1317.5 1102.0C1318.4 1103.4 1319.6 1103.2 1321.0 1101.5ZM1401.4 1101.3C1401.8 1100.4 1401.8 1094.4 1401.5 1088.0C1401.2 1081.7 1401.3 1075.2 1401.8 1073.5C1402.5 1070.8 1403.1 1070.5 1407.6 1070.0C1411.7 1069.6 1412.5 1069.2 1412.8 1067.2C1413.1 1065.0 1413.1 1065.0 1399.2 1065.0C1391.6 1065.0 1385.1 1065.3 1384.8 1065.6C1384.5 1065.9 1384.4 1067.0 1384.7 1068.1C1385.1 1069.6 1386.1 1070.0 1390.1 1070.0L1395.0 1070.0L1395.0 1085.9C1395.0 1097.7 1395.3 1102.0 1396.2 1102.3C1398.8 1103.4 1400.8 1103.0 1401.4 1101.3ZM1478.0 1101.5C1479.0 1100.3 1479.0 1099.7 1478.0 1098.5C1477.0 1097.4 1474.4 1097.0 1466.9 1097.0L1457.0 1097.0L1457.0 1091.5L1457.0 1086.1L1466.2 1085.8C1474.7 1085.5 1475.5 1085.3 1475.5 1083.5C1475.5 1081.7 1474.7 1081.5 1468.5 1081.2C1457.2 1080.8 1457.0 1080.7 1457.0 1075.0L1457.0 1070.1L1467.2 1069.8C1476.7 1069.5 1477.5 1069.4 1477.5 1067.5C1477.5 1065.6 1476.8 1065.5 1464.5 1065.5L1451.5 1065.5L1451.2 1083.0C1451.0 1098.6 1451.1 1100.6 1452.7 1101.7C1455.3 1103.7 1476.4 1103.5 1478.0 1101.5ZM1540.1 1101.4C1542.4 1098.6 1539.4 1097.1 1530.7 1096.8L1522.5 1096.5L1522.0 1081.0C1521.5 1066.2 1521.4 1065.5 1519.4 1065.2C1517.4 1064.9 1517.3 1065.4 1516.7 1082.6C1516.2 1095.2 1516.4 1100.7 1517.2 1101.7C1518.8 1103.6 1538.4 1103.4 1540.1 1101.4ZM1602.1 1101.3C1603.1 1100.4 1603.0 1099.7 1602.0 1098.5C1601.1 1097.4 1598.7 1097.0 1592.4 1097.0L1584.1 1097.0L1583.8 1081.2C1583.5 1066.0 1583.4 1065.5 1581.4 1065.2C1579.3 1064.9 1579.2 1065.4 1578.7 1077.2C1578.0 1091.9 1578.2 1100.0 1579.4 1101.8C1580.5 1103.6 1600.3 1103.1 1602.1 1101.3ZM1645.9 1101.6C1646.8 1100.6 1647.0 1095.1 1646.8 1082.8L1646.5 1065.5L1644.0 1065.5L1641.5 1065.5L1641.2 1083.4C1641.0 1097.1 1641.3 1101.5 1642.2 1102.2C1644.0 1103.3 1644.6 1103.2 1645.9 1101.6ZM1710.6 1101.5C1713.7 1100.2 1714.4 1100.2 1716.4 1101.5C1717.6 1102.3 1719.0 1102.7 1719.3 1102.3C1719.7 1102.0 1720.0 1097.5 1720.0 1092.3C1720.0 1083.3 1719.9 1083.0 1717.8 1082.9C1711.9 1082.7 1705.4 1083.2 1704.6 1084.0C1703.2 1085.4 1705.8 1087.9 1708.0 1087.3C1711.0 1086.5 1715.0 1087.8 1715.0 1089.6C1715.0 1090.5 1713.7 1092.5 1712.1 1094.1C1709.6 1096.5 1708.3 1097.0 1704.3 1097.0C1696.4 1096.9 1693.0 1092.9 1693.0 1083.5C1693.0 1074.2 1696.4 1070.1 1704.2 1070.0C1708.1 1070.0 1709.4 1070.5 1711.9 1073.1C1715.0 1076.2 1718.0 1076.6 1718.8 1074.2C1719.0 1073.5 1717.3 1071.1 1715.1 1068.9C1711.2 1065.2 1710.5 1065.0 1704.8 1065.0C1697.3 1065.0 1693.0 1067.4 1689.5 1073.4C1685.3 1080.6 1686.4 1093.5 1691.7 1098.2C1697.0 1103.0 1704.1 1104.2 1710.6 1101.5ZM1785.8 1102.1C1786.6 1101.6 1787.0 1100.4 1786.8 1099.4C1786.5 1097.7 1785.3 1097.4 1776.5 1097.0L1766.5 1096.5L1766.2 1091.3L1765.9 1086.1L1774.7 1085.8C1782.9 1085.5 1783.5 1085.4 1783.8 1083.3C1784.1 1081.2 1783.8 1081.1 1775.3 1080.8L1766.5 1080.5L1766.5 1075.5L1766.5 1070.5L1776.5 1070.0C1785.7 1069.5 1786.5 1069.3 1786.5 1067.5C1786.5 1065.6 1785.8 1065.5 1774.0 1065.5L1761.5 1065.5L1761.2 1083.7L1761.0 1101.9L1771.7 1102.3C1777.7 1102.4 1783.0 1102.7 1783.5 1102.8C1784.0 1102.9 1785.1 1102.6 1785.8 1102.1ZM1831.2 1095.1C1831.3 1091.5 1831.2 1086.0 1831.1 1082.9C1830.9 1079.8 1831.2 1077.0 1831.7 1076.7C1832.2 1076.4 1834.2 1078.7 1836.0 1081.8C1837.9 1084.9 1840.7 1089.5 1842.4 1092.0C1844.1 1094.5 1846.1 1097.7 1846.9 1099.3C1848.5 1102.3 1852.5 1103.9 1854.3 1102.1C1855.3 1101.1 1855.4 1067.5 1854.4 1065.8C1854.1 1065.3 1853.0 1065.0 1851.9 1065.0C1850.1 1065.0 1850.0 1065.8 1850.0 1078.0C1850.0 1085.2 1849.7 1091.0 1849.2 1091.0C1848.6 1091.0 1839.8 1077.9 1833.6 1067.7C1832.2 1065.4 1831.3 1064.9 1828.7 1065.2L1825.6 1065.5L1825.6 1083.3C1825.6 1097.3 1825.9 1101.3 1826.9 1102.0C1829.9 1103.8 1831.0 1101.9 1831.2 1095.1ZM1916.7 1102.4C1919.9 1101.8 1924.7 1097.8 1926.8 1094.2C1927.8 1092.4 1927.8 1091.5 1926.9 1090.4C1925.1 1088.2 1923.3 1088.7 1921.4 1091.9C1919.0 1096.0 1915.9 1097.4 1910.0 1097.1C1907.0 1097.0 1902.0 1092.9 1902.0 1090.7C1902.0 1089.8 1901.5 1088.8 1901.0 1088.5C1900.5 1088.2 1900.0 1086.1 1900.0 1084.0C1900.0 1081.9 1900.5 1079.8 1901.0 1079.5C1901.5 1079.2 1902.0 1078.1 1902.0 1077.1C1902.0 1074.6 1906.6 1070.3 1910.0 1069.5C1913.7 1068.7 1919.4 1071.3 1920.8 1074.5C1922.0 1077.2 1925.5 1077.9 1926.3 1075.7C1927.1 1073.5 1924.2 1068.6 1920.9 1066.8C1917.4 1064.7 1908.0 1064.4 1904.7 1066.2C1900.0 1068.6 1896.2 1074.1 1895.5 1079.1C1894.3 1087.8 1895.7 1093.7 1900.0 1098.0C1904.6 1102.6 1909.5 1103.9 1916.7 1102.4ZM1992.1 1101.3C1992.7 1100.7 1992.8 1099.6 1992.4 1098.7C1991.9 1097.3 1990.2 1097.0 1981.9 1097.0L1972.0 1097.0L1972.0 1091.5L1972.0 1086.0L1981.0 1086.0C1988.3 1086.0 1990.0 1085.7 1990.0 1084.5C1990.0 1083.7 1990.0 1082.7 1990.0 1082.2C1990.0 1081.8 1986.1 1081.3 1981.3 1081.0L1972.5 1080.5L1972.2 1075.2L1971.9 1070.0L1981.9 1070.0L1992.0 1070.0L1992.0 1067.5L1992.0 1065.0L1979.0 1065.0L1966.0 1065.0L1966.0 1083.4L1966.0 1101.9L1968.8 1102.2C1974.3 1102.8 1991.3 1102.1 1992.1 1101.3ZM2146.8 1102.2C2147.7 1101.5 2148.0 1097.1 2147.8 1083.4L2147.5 1065.5L2144.8 1065.2L2142.0 1064.9L2142.0 1083.4C2142.0 1101.3 2142.2 1102.5 2145.0 1102.9C2145.3 1102.9 2146.1 1102.6 2146.8 1102.2ZM2216.4 1102.4C2217.8 1101.9 2218.0 1099.2 2218.0 1083.4C2218.0 1065.9 2217.9 1065.0 2216.1 1065.0C2215.0 1065.0 2213.9 1065.4 2213.6 1065.9C2213.3 1066.4 2212.9 1072.2 2212.8 1078.9C2212.5 1090.3 2211.8 1093.3 2210.3 1089.2C2209.9 1088.3 2208.4 1085.6 2206.8 1083.3C2205.3 1081.0 2204.0 1078.7 2204.0 1078.1C2204.0 1077.5 2203.6 1077.0 2203.0 1077.0C2202.4 1077.0 2202.0 1076.5 2202.0 1076.0C2202.0 1075.4 2200.5 1072.7 2198.8 1070.0C2196.2 1066.2 2194.9 1065.0 2192.9 1065.0L2190.3 1065.0L2189.8 1077.2C2189.5 1084.0 2189.5 1092.3 2189.8 1095.8C2190.2 1101.5 2190.4 1102.1 2192.4 1101.8C2194.4 1101.5 2194.5 1100.9 2194.7 1089.5C2194.8 1082.9 2195.0 1077.0 2195.0 1076.5C2195.1 1075.4 2200.0 1081.1 2200.0 1082.3C2200.0 1082.7 2202.2 1086.4 2205.0 1090.5C2207.8 1094.6 2210.0 1098.2 2210.0 1098.6C2210.0 1099.2 2213.9 1103.0 2214.6 1103.0C2214.7 1103.0 2215.5 1102.7 2216.4 1102.4ZM2261.8 1101.1C2263.0 1100.1 2264.0 1098.4 2264.0 1097.4C2264.1 1093.3 2266.4 1092.0 2273.2 1092.0C2279.7 1092.0 2279.8 1092.0 2281.0 1095.2C2283.5 1102.0 2286.0 1104.4 2288.1 1102.3C2289.3 1101.1 2288.4 1097.7 2285.0 1089.5C2283.6 1086.1 2282.8 1083.9 2279.6 1074.5C2276.8 1066.3 2276.3 1065.5 2273.7 1065.2C2270.4 1064.8 2268.0 1066.5 2268.0 1069.1C2268.0 1070.2 2267.6 1071.9 2267.0 1073.0C2266.4 1074.1 2265.6 1075.9 2265.0 1077.0C2264.4 1078.1 2264.0 1079.7 2264.0 1080.5C2264.0 1081.3 2263.6 1082.8 2263.1 1083.8C2262.6 1084.7 2261.7 1086.7 2261.1 1088.2C2260.5 1089.8 2259.5 1092.2 2258.9 1093.8C2258.3 1095.3 2257.3 1097.3 2256.8 1098.3C2256.2 1099.5 2256.3 1100.6 2257.1 1101.6C2258.6 1103.4 2259.3 1103.4 2261.8 1101.1ZM2350.8 1102.1C2351.6 1101.6 2352.0 1100.4 2351.8 1099.4C2351.5 1097.7 2350.4 1097.5 2343.0 1097.2C2337.8 1097.0 2334.3 1096.4 2333.8 1095.7C2333.3 1095.0 2333.0 1088.3 2333.1 1080.8C2333.1 1073.3 2332.9 1066.6 2332.5 1066.1C2332.2 1065.5 2331.0 1065.0 2329.9 1065.0C2328.1 1065.0 2328.0 1065.9 2328.0 1083.3C2328.0 1093.4 2328.3 1102.0 2328.7 1102.3C2329.6 1103.3 2349.3 1103.1 2350.8 1102.1ZM2413.1 1101.4C2414.0 1100.3 2413.9 1099.6 2413.0 1098.5C2412.1 1097.4 2409.6 1097.0 2403.4 1097.0C2398.8 1097.0 2395.0 1096.7 2395.0 1096.2C2395.0 1095.8 2394.8 1088.8 2394.7 1080.5L2394.5 1065.5L2392.0 1065.5L2389.6 1065.5L2389.8 1083.3C2389.8 1093.1 2390.1 1101.4 2390.4 1101.9C2390.7 1102.3 2395.7 1102.7 2401.4 1102.7C2409.2 1102.8 2412.2 1102.4 2413.1 1101.4ZM2458.4 1102.4C2459.7 1101.9 2460.0 1100.1 2460.0 1093.4C2460.0 1088.5 2460.4 1085.0 2461.0 1085.0C2461.6 1085.0 2462.0 1084.3 2462.0 1083.5C2462.0 1082.7 2462.4 1082.0 2463.0 1082.0C2463.6 1082.0 2464.0 1081.5 2464.0 1080.9C2464.0 1080.3 2464.8 1078.6 2465.9 1077.2C2468.6 1073.3 2472.0 1067.1 2472.0 1066.0C2472.0 1064.2 2466.3 1064.9 2465.7 1066.8C2465.3 1067.7 2463.9 1070.5 2462.4 1073.0C2457.1 1082.1 2457.8 1082.1 2452.4 1073.1C2448.2 1066.0 2447.3 1065.0 2444.8 1065.0C2443.0 1065.0 2442.0 1065.5 2442.0 1066.5C2442.0 1067.3 2442.3 1068.0 2442.8 1068.0C2443.2 1068.0 2444.1 1069.5 2444.9 1071.2C2445.7 1073.0 2446.6 1074.7 2446.9 1075.0C2447.9 1075.8 2451.1 1081.4 2451.7 1083.2C2452.0 1084.2 2452.6 1085.0 2453.1 1085.0C2453.6 1085.0 2454.0 1088.8 2454.0 1093.4C2454.0 1099.2 2454.4 1102.0 2455.2 1102.3C2455.9 1102.6 2456.6 1102.9 2456.7 1102.9C2456.8 1103.0 2457.5 1102.7 2458.4 1102.4ZM2579.0 1100.8C2584.3 1098.1 2588.1 1091.6 2588.7 1084.2C2589.1 1078.4 2586.1 1072.0 2580.8 1067.7C2574.7 1062.8 2564.2 1063.9 2558.3 1070.2C2555.1 1073.6 2554.0 1077.3 2554.0 1084.3C2554.0 1092.8 2557.4 1098.5 2564.2 1101.5C2569.0 1103.6 2574.0 1103.3 2579.0 1100.8ZM2633.0 1094.5L2633.0 1088.0L2637.2 1088.0C2648.5 1087.9 2655.0 1083.4 2655.0 1075.7C2655.0 1072.6 2654.3 1071.1 2651.6 1068.4L2648.1 1064.9L2637.8 1065.2L2627.5 1065.5L2627.2 1082.9C2626.9 1101.3 2627.5 1103.9 2631.1 1101.9C2632.7 1101.1 2633.0 1099.8 2633.0 1094.5ZM2718.8 1102.1C2719.6 1101.6 2720.0 1100.4 2719.8 1099.4C2719.5 1097.7 2718.3 1097.5 2709.2 1097.2L2699.0 1096.9L2699.0 1091.5L2699.0 1086.0L2707.5 1086.0C2714.7 1086.0 2716.1 1085.7 2716.9 1084.1C2717.5 1083.1 2717.6 1082.0 2717.3 1081.6C2717.0 1081.3 2712.7 1081.0 2707.8 1081.0L2699.0 1081.0L2699.0 1075.5L2699.0 1070.1L2708.8 1069.8C2717.7 1069.5 2718.5 1069.3 2718.5 1067.5C2718.5 1065.6 2717.7 1065.5 2705.8 1065.2L2693.0 1064.9L2693.0 1083.4L2693.0 1101.9L2697.8 1102.3C2707.3 1103.0 2717.5 1102.9 2718.8 1102.1ZM2763.6 1101.8C2764.0 1101.2 2764.2 1095.6 2764.1 1089.4C2764.0 1083.3 2764.3 1077.9 2764.8 1077.6C2765.7 1077.1 2770.8 1084.1 2775.0 1091.4C2776.0 1093.2 2777.4 1095.8 2778.2 1097.1C2779.9 1100.1 2783.0 1103.0 2784.5 1103.0C2787.5 1103.0 2787.8 1100.3 2787.3 1082.7C2786.7 1065.4 2786.6 1064.9 2784.6 1065.2C2782.6 1065.5 2782.5 1066.2 2782.2 1078.3C2782.0 1089.5 2781.7 1091.0 2780.5 1090.0C2779.7 1089.3 2779.0 1088.1 2779.0 1087.4C2779.0 1086.6 2778.6 1086.0 2778.0 1086.0C2777.4 1086.0 2777.0 1085.3 2777.0 1084.5C2777.0 1083.7 2776.6 1083.0 2776.0 1083.0C2775.4 1083.0 2775.0 1082.5 2775.0 1081.9C2775.0 1081.3 2773.7 1078.9 2772.0 1076.5C2770.3 1074.1 2769.0 1071.7 2769.0 1071.1C2769.0 1070.5 2768.7 1070.0 2768.2 1070.0C2767.8 1070.0 2767.0 1069.0 2766.5 1067.8C2765.8 1066.2 2764.5 1065.4 2762.2 1065.2L2759.0 1064.9L2759.0 1083.3C2759.0 1093.4 2759.3 1102.0 2759.7 1102.3C2760.7 1103.4 2762.8 1103.1 2763.6 1101.8ZM2083.4 1093.8L2084.3 1086.0L2092.2 1086.0C2099.9 1086.0 2100.0 1086.0 2100.0 1083.5C2100.0 1081.0 2099.9 1081.0 2092.0 1081.0C2084.4 1081.0 2084.0 1080.9 2083.4 1078.6C2083.1 1077.3 2083.0 1074.9 2083.2 1073.4C2083.5 1070.5 2083.5 1070.5 2091.5 1070.2C2101.3 1069.9 2104.0 1069.4 2104.0 1067.6C2104.0 1065.4 2101.6 1065.0 2089.4 1065.0L2078.0 1065.0L2078.0 1083.6L2078.0 1102.1L2080.2 1101.8C2082.3 1101.5 2082.6 1100.7 2083.4 1093.8ZM2564.2 1095.0C2561.6 1092.5 2559.0 1086.7 2559.0 1083.3C2559.0 1079.9 2561.4 1074.6 2564.1 1072.1C2565.8 1070.6 2567.7 1070.0 2571.3 1070.0C2575.4 1070.0 2576.6 1070.5 2579.0 1073.0C2583.8 1078.2 2583.8 1088.8 2579.0 1094.0C2576.6 1096.5 2575.4 1097.0 2571.3 1097.0C2567.7 1097.0 2565.8 1096.4 2564.2 1095.0ZM2268.0 1084.6C2268.0 1083.2 2268.4 1081.8 2269.0 1081.5C2269.6 1081.2 2270.0 1079.9 2270.0 1078.7C2270.1 1076.5 2272.6 1072.2 2273.4 1073.1C2273.9 1073.6 2278.0 1085.4 2278.0 1086.3C2278.0 1086.7 2275.8 1087.0 2273.0 1087.0C2268.4 1087.0 2268.0 1086.8 2268.0 1084.6ZM2633.7 1082.3C2633.3 1082.0 2633.0 1079.0 2633.0 1075.8L2633.0 1070.0L2638.8 1070.0C2645.8 1070.0 2648.1 1071.4 2648.2 1075.9C2648.3 1080.6 2645.2 1083.0 2639.1 1083.0C2636.5 1083.0 2634.0 1082.7 2633.7 1082.3Z" fill="#8A8A93" fill-rule="evenodd"/></svg>