<svg xmlns="http://www.w3.org/2000/svg" viewBox="0 0 3312 1440"><path d="M938.33 537.3 A325.5 325.5 0 1 0 938.33 922.7 L859.21 896.71 A247.7 247.7 0 1 1 859.21 563.29 Z" fill="#FFFFFF"/><circle cx="939" cy="732" r="77" fill="#DD033F"/><path d="M1412.7019607843138 906.156862745098Q1373.4196078431373 906.156862745098 1343.0745098039215 886.6196078431373Q1312.729411764706 867.0823529411765 1295.478431372549 831.4372549019608Q1278.2274509803922 795.7921568627451 1278.2274509803922 747.364705882353Q1278.2274509803922 698.7294117647059 1295.478431372549 662.9803921568628Q1312.729411764706 627.2313725490196 1343.0745098039215 607.6941176470589Q1373.4196078431373 588.156862745098 1412.7019607843138 588.156862745098Q1451.7764705882353 588.156862745098 1482.1215686274509 607.6941176470589Q1512.4666666666667 627.2313725490196 1529.613725490196 662.9803921568628Q1546.7607843137255 698.7294117647059 1546.7607843137255 747.364705882353Q1546.7607843137255 795.7921568627451 1529.613725490196 831.5411764705882Q1512.4666666666667 867.2901960784313 1482.1215686274509 886.7235294117647Q1451.7764705882353 906.156862745098 1412.7019607843138 906.156862745098ZM1412.7019607843138 878.5137254901961Q1442.8392156862744 878.5137254901961 1466.6372549019607 862.9254901960785Q1490.4352941176471 847.3372549019608 1504.256862745098 817.9274509803922Q1518.078431372549 788.5176470588235 1518.078431372549 747.364705882353Q1518.078431372549 706.0039215686274 1504.256862745098 676.4901960784314Q1490.4352941176471 646.9764705882353 1466.6372549019607 631.3882352941176Q1442.8392156862744 615.8 1412.7019607843138 615.8Q1382.3568627450982 615.8 1358.4549019607844 631.3882352941176Q1334.5529411764705 646.9764705882353 1320.7313725490196 676.4901960784314Q1306.9098039215687 706.0039215686274 1306.9098039215687 747.364705882353Q1306.9098039215687 788.3098039215686 1320.7313725490196 817.7196078431373Q1334.5529411764705 847.1294117647059 1358.4549019607844 862.8215686274509Q1382.3568627450982 878.5137254901961 1412.7019607843138 878.5137254901961Z M1609.5294117647059 988.878431372549V669.6313725490196H1636.964705882353V714.3176470588235H1640.0823529411764Q1644.6549019607844 703.7176470588236 1653.280392156863 692.7019607843138Q1661.9058823529413 681.686274509804 1675.9352941176471 674.1Q1689.964705882353 666.5137254901961 1711.372549019608 666.5137254901961Q1739.8470588235296 666.5137254901961 1761.2549019607845 681.478431372549Q1782.6627450980393 696.443137254902 1794.7176470588236 723.4627450980392Q1806.7725490196078 750.4823529411765 1806.7725490196078 786.4392156862746Q1806.7725490196078 822.6039215686275 1794.8215686274511 849.7274509803922Q1782.8705882352942 876.8509803921569 1761.4627450980392 891.9196078431373Q1740.0549019607843 906.9882352941177 1711.372549019608 906.9882352941177Q1690.5882352941176 906.9882352941177 1676.3509803921568 899.4019607843138Q1662.113725490196 891.8156862745099 1653.4882352941177 880.5921568627451Q1644.8627450980393 869.3686274509804 1640.0823529411764 858.5607843137254H1637.7960784313725V988.878431372549ZM1707.6313725490197 881.4235294117647Q1730.4941176470588 881.4235294117647 1746.186274509804 868.7450980392157Q1761.8784313725491 856.0666666666666 1770.0882352941176 834.4509803921569Q1778.2980392156862 812.8352941176471 1778.2980392156862 786.2313725490196Q1778.2980392156862 759.6274509803922 1770.192156862745 738.3235294117646Q1762.0862745098038 717.0196078431372 1746.2901960784313 704.5490196078431Q1730.4941176470588 692.078431372549 1707.6313725490197 692.078431372549Q1685.1843137254903 692.078431372549 1669.492156862745 704.1333333333333Q1653.8 716.1882352941177 1645.5901960784313 737.3882352941177Q1637.3803921568629 758.5882352941177 1637.3803921568629 786.2313725490196Q1637.3803921568629 813.8745098039216 1645.6941176470589 835.3862745098039Q1654.007843137255 856.8980392156863 1669.7 869.1607843137255Q1685.3921568627452 881.4235294117647 1707.6313725490197 881.4235294117647Z M1959.9529411764706 906.9882352941177Q1927.321568627451 906.9882352941177 1903.5235294117647 891.7117647058824Q1879.7254901960785 876.435294117647 1866.735294117647 849.4156862745098Q1853.7450980392157 822.3960784313725 1853.7450980392157 787.2705882352941Q1853.7450980392157 752.1450980392157 1866.5274509803921 724.9176470588236Q1879.3098039215686 697.6901960784314 1902.2764705882353 682.1019607843137Q1925.243137254902 666.5137254901961 1955.5882352941176 666.5137254901961Q1974.7098039215687 666.5137254901961 1992.3764705882354 673.4764705882353Q2010.043137254902 680.4392156862746 2024.1764705882351 694.6764705882354Q2038.3098039215686 708.913725490196 2046.4156862745099 730.7372549019608Q2054.521568627451 752.5607843137254 2054.521568627451 782.0745098039215V794.3372549019608H1882.0117647058823Q1882.6352941176472 819.278431372549 1891.5725490196078 838.4Q1901.1333333333332 858.9764705882353 1918.6960784313724 870.3039215686274Q1936.2588235294118 881.6313725490196 1960.1607843137256 881.6313725490196Q1976.372549019608 881.6313725490196 1988.7392156862745 876.4352941176471Q2001.105882352941 871.2392156862745 2009.5235294117647 862.6137254901961Q2017.9411764705883 853.9882352941177 2022.0980392156862 843.8039215686274L2048.9098039215687 852.3254901960785Q2043.5058823529412 866.8745098039216 2031.5549019607843 879.3450980392157Q2019.6039215686274 891.8156862745099 2001.521568627451 899.4019607843138Q1983.4392156862746 906.9882352941177 1959.9529411764706 906.9882352941177ZM1882.2196078431373 770.0196078431372H2026.2549019607843Q2024.8 750.4823529411765 2017.9411764705883 734.478431372549Q2009.4196078431373 714.7333333333333 1993.6235294117646 703.3019607843137Q1977.827450980392 691.8705882352941 1955.5882352941176 691.8705882352941Q1933.556862745098 691.8705882352941 1917.0333333333333 703.5098039215686Q1900.5098039215686 715.1490196078431 1891.3647058823528 734.2705882352941Q1883.2588235294118 750.6901960784314 1882.2196078431373 770.0196078431372Z M2140.7764705882355 757.1333333333333V902.0H2112.5098039215686V669.6313725490196H2139.737254901961L2139.9450980392157 712.2392156862745Q2149.2980392156865 690.8313725490195 2165.717647058824 680.0235294117647Q2186.086274509804 666.5137254901961 2212.4823529411765 666.5137254901961Q2236.176470588235 666.5137254901961 2253.9470588235295 676.3862745098039Q2271.717647058824 686.2588235294118 2281.7980392156865 705.1725490196078Q2291.878431372549 724.0862745098038 2291.878431372549 751.7294117647059V902.0H2263.8196078431374V753.8078431372548Q2263.8196078431374 725.3333333333333 2247.81568627451 708.8098039215686Q2231.8117647058825 692.2862745098039 2205.0 692.2862745098039Q2186.709803921569 692.2862745098039 2172.1607843137253 700.0803921568627Q2157.6117647058823 707.8745098039216 2149.194117647059 722.5274509803921Q2140.7764705882355 737.1803921568627 2140.7764705882355 757.1333333333333Z M2367.949019607843 902.0V592.313725490196H2490.7843137254904Q2524.8705882352942 592.313725490196 2547.6294117647058 602.6019607843136Q2570.3882352941177 612.8901960784314 2581.7156862745096 630.7647058823529Q2593.043137254902 648.6392156862745 2593.043137254902 671.9176470588235Q2593.043137254902 690.2078431372549 2585.7686274509806 703.821568627451Q2578.494117647059 717.4352941176471 2565.9196078431373 726.0607843137255Q2553.345098039216 734.686274509804 2537.3411764705884 738.4274509803921V741.5450980392156Q2554.8 742.1686274509804 2570.2843137254904 751.4176470588235Q2585.7686274509806 760.6666666666666 2595.4333333333334 777.1901960784314Q2605.098039215686 793.7137254901961 2605.098039215686 816.5764705882353Q2605.098039215686 841.1019607843137 2593.043137254902 860.4313725490197Q2580.9882352941177 879.7607843137255 2557.3980392156864 890.8803921568627Q2533.807843137255 902.0 2498.6823529411768 902.0ZM2431.3411764705884 849.8313725490196H2486.2117647058826Q2514.062745098039 849.8313725490196 2526.949019607843 839.0235294117647Q2539.835294117647 828.2156862745098 2539.835294117647 810.5490196078431Q2539.835294117647 797.4549019607844 2533.4960784313726 787.3745098039216Q2527.1568627450984 777.2941176470588 2515.517647058824 771.578431372549Q2503.878431372549 765.8627450980392 2487.8745098039217 765.8627450980392H2431.3411764705884ZM2431.3411764705884 722.4235294117647H2481.4313725490197Q2494.9411764705883 722.4235294117647 2505.7490196078434 717.5392156862745Q2516.556862745098 712.6549019607843 2522.6882352941175 703.613725490196Q2528.8196078431374 694.5725490196078 2528.8196078431374 682.1019607843137Q2528.8196078431374 665.2666666666667 2516.8686274509805 654.6666666666666Q2504.9176470588236 644.0666666666666 2482.6784313725493 644.0666666666666H2431.3411764705884Z M2712.9686274509804 592.313725490196V902.0H2649.576470588235V592.313725490196Z" fill="#FFFFFF"/><path d="M1266.5196470588235 1081.1596078431373V1140.0H1257.5158823529412V1081.1596078431373Z M1292.482112745098 1140.0V1081.1596078431373H1302.8680343137255L1325.0220343137255 1116.187411764706Q1326.1277598039214 1117.9249803921568 1327.5099166666666 1120.3338823529411Q1328.8920735294118 1122.7427843137255 1330.4321911764705 1125.7440392156864Q1331.2614852941176 1127.3631372549019 1332.0512892156862 1129.1401960784315Q1331.932818627451 1127.4026274509804 1331.853838235294 1125.6650588235293Q1331.656387254902 1122.3873725490196 1331.5774068627452 1119.5045882352942Q1331.4984264705881 1116.6218039215687 1331.4984264705881 1114.647294117647V1081.1596078431373H1340.6206617647058V1140.0H1330.19525L1310.331681372549 1108.684274509804Q1308.7520735294117 1106.1174117647058 1307.2317009803921 1103.5110588235293Q1305.7113284313725 1100.904705882353 1303.8947794117646 1097.4690588235294Q1302.5916029411765 1095.139137254902 1300.9330147058822 1092.0589019607844Q1301.0909754901961 1094.783725490196 1301.2094460784313 1097.2716078431372Q1301.4068970588235 1101.0626666666667 1301.5056225490196 1103.9651960784313Q1301.6043480392157 1106.867725490196 1301.6043480392157 1108.605294117647V1140.0Z M1363.621362745098 1088.8996862745098V1081.1596078431373H1409.3115196078431V1088.8996862745098H1391.0275588235293V1140.0H1381.9843039215687V1088.8996862745098Z M1432.3122205882353 1140.0V1081.1596078431373H1469.3540245098038V1088.8996862745098H1441.3159852941176V1106.4333333333334H1467.340024509804V1114.1339215686276H1441.3159852941176V1132.2599215686275H1469.5909656862746V1140.0Z M1494.0133137254902 1140.0V1081.1596078431373H1503.0170784313725V1132.2599215686275H1529.6729607843138V1140.0Z M1552.673661764706 1140.0V1081.1596078431373H1561.6774264705882V1132.2599215686275H1588.3333088235295V1140.0Z M1620.337774509804 1081.1596078431373V1140.0H1611.3340098039216V1081.1596078431373Z M1671.0211029411764 1140.7898039215686Q1663.0440833333334 1140.7898039215686 1657.0218284313726 1137.1172156862744Q1650.9995735294117 1133.4446274509803 1647.6231617647059 1126.6720588235294Q1644.24675 1119.8994901960784 1644.24675 1110.619294117647Q1644.24675 1101.2206274509804 1647.6626519607844 1094.4480588235294Q1651.0785539215688 1087.6754901960785 1657.0415735294118 1084.0226470588236Q1663.004593137255 1080.3698039215685 1670.6262009803922 1080.3698039215685Q1675.365024509804 1080.3698039215685 1679.4917500000001 1081.7717058823528Q1683.618475490196 1083.1736078431372 1686.8764166666665 1085.7602156862745Q1690.1343578431372 1088.3468235294117 1692.2470833333332 1091.9206862745098Q1694.3598088235294 1095.4945490196078 1695.0706323529412 1099.7594901960783H1685.8299264705884Q1685.0401225490195 1097.1926274509804 1683.6579656862746 1095.119392156863Q1682.2758088235294 1093.0461568627452 1680.3605343137256 1091.5850196078432Q1678.4452598039215 1090.123882352941 1676.016612745098 1089.3538235294118Q1673.5879656862746 1088.5837647058825 1670.705181372549 1088.5837647058825Q1665.7294166666668 1088.5837647058825 1661.7606519607843 1091.1111372549021Q1657.791887254902 1093.6385098039216 1655.4817107843137 1098.5550392156863Q1653.1715343137255 1103.471568627451 1653.1715343137255 1110.5798039215688Q1653.1715343137255 1117.6880392156863 1655.4817107843137 1122.5848235294118Q1657.791887254902 1127.4816078431372 1661.819887254902 1130.028725490196Q1665.847887254902 1132.5758431372549 1671.060593137255 1132.5758431372549Q1675.7994166666667 1132.5758431372549 1679.3337892156865 1130.660568627451Q1682.868161764706 1128.745294117647 1684.8426715686276 1125.1911764705883Q1686.6987107843138 1121.8345098039215 1686.7776911764706 1117.2536470588236H1672.363769607843V1109.8294901960785H1695.5840049019607V1116.5823137254902Q1695.5840049019607 1124.0064705882353 1692.405044117647 1129.4363725490196Q1689.2260833333335 1134.8662745098038 1683.697455882353 1137.8280392156862Q1678.1688284313725 1140.7898039215686 1671.0211029411764 1140.7898039215686Z M1719.690431372549 1140.0V1081.1596078431373H1756.7322352941176V1088.8996862745098H1728.6941960784313V1106.4333333333334H1754.7182352941177V1114.1339215686276H1728.6941960784313V1132.2599215686275H1756.9691764705883V1140.0Z M1781.391524509804 1140.0V1081.1596078431373H1791.7774460784315L1813.9314460784315 1116.187411764706Q1815.0371715686274 1117.9249803921568 1816.4193284313726 1120.3338823529411Q1817.8014852941178 1122.7427843137255 1819.3416029411765 1125.7440392156864Q1820.1708970588236 1127.3631372549019 1820.9607009803922 1129.1401960784315Q1820.842230392157 1127.4026274509804 1820.76325 1125.6650588235293Q1820.565799019608 1122.3873725490196 1820.4868186274512 1119.5045882352942Q1820.407838235294 1116.6218039215687 1820.407838235294 1114.647294117647V1081.1596078431373H1829.5300735294118V1140.0H1819.104661764706L1799.241093137255 1108.684274509804Q1797.6614852941177 1106.1174117647058 1796.141112745098 1103.5110588235293Q1794.6207401960785 1100.904705882353 1792.8041911764706 1097.4690588235294Q1791.5010147058824 1095.139137254902 1789.8424264705882 1092.0589019607844Q1790.000387254902 1094.783725490196 1790.1188578431372 1097.2716078431372Q1790.3163088235294 1101.0626666666667 1790.4150343137255 1103.9651960784313Q1790.5137598039216 1106.867725490196 1790.5137598039216 1108.605294117647V1140.0Z M1879.9369705882352 1140.7898039215686Q1872.3153627450981 1140.7898039215686 1866.3128529411765 1137.176450980392Q1860.310343137255 1133.5630980392157 1856.8746960784315 1126.7905294117647Q1853.4390490196079 1120.0179607843138 1853.4390490196079 1110.619294117647Q1853.4390490196079 1101.1811372549018 1856.8746960784315 1094.408568627451Q1860.310343137255 1087.636 1866.3128529411765 1084.0029019607841Q1872.3153627450981 1080.3698039215685 1879.9369705882352 1080.3698039215685Q1884.5968137254902 1080.3698039215685 1888.6840490196078 1081.7124705882352Q1892.7712843137256 1083.0551372549019 1895.9897352941177 1085.6219999999998Q1899.20818627451 1088.188862745098 1901.320911764706 1091.8614509803922Q1903.433637254902 1095.5340392156863 1904.1839509803922 1100.1938823529413H1895.1406960784313Q1894.5878333333333 1097.3900784313726 1893.185931372549 1095.237862745098Q1891.7840294117648 1093.0856470588235 1889.7700294117649 1091.5850196078432Q1887.7560294117648 1090.0843921568628 1885.2681470588236 1089.3340784313727Q1882.7802647058825 1088.5837647058825 1880.0159509803923 1088.5837647058825Q1874.961205882353 1088.5837647058825 1870.9529509803922 1091.1308823529412Q1866.9446960784314 1093.6779999999999 1864.6542647058823 1098.5945294117646Q1862.3638333333333 1103.5110588235293 1862.3638333333333 1110.619294117647Q1862.3638333333333 1117.7275294117646 1864.6937549019608 1122.6440588235293Q1867.0236764705883 1127.560588235294 1871.01218627451 1130.0682156862745Q1875.0006960784315 1132.5758431372549 1880.0159509803923 1132.5758431372549Q1882.7802647058825 1132.5758431372549 1885.2484019607843 1131.8057843137253Q1887.7165392156862 1131.035725490196 1889.7502843137254 1129.554843137255Q1891.7840294117648 1128.0739607843136 1893.185931372549 1125.902Q1894.5878333333333 1123.7300392156862 1895.1406960784313 1120.965725490196H1904.2234411764707Q1903.5521078431373 1125.3096470588234 1901.4986176470588 1128.923Q1899.4451274509804 1132.5363529411766 1896.2464215686275 1135.22168627451Q1893.0477156862746 1137.907019607843 1888.9209901960785 1139.3484117647058Q1884.7942647058824 1140.7898039215686 1879.9369705882352 1140.7898039215686Z M1927.7375147058824 1140.0V1081.1596078431373H1964.779318627451V1088.8996862745098H1936.7412794117647V1106.4333333333334H1962.765318627451V1114.1339215686276H1936.7412794117647V1132.2599215686275H1965.0162598039217V1140.0Z M2023.930955882353 1140.0V1081.1596078431373H2060.5383676470587V1088.8996862745098H2032.9347205882352V1107.8154901960784H2057.892524509804V1115.5160784313725H2032.9347205882352V1140.0Z M2093.530088235294 1081.1596078431373V1140.0H2084.526323529412V1081.1596078431373Z M2119.4925539215687 1140.0V1081.1596078431373H2129.878475490196L2152.032475490196 1116.187411764706Q2153.138200980392 1117.9249803921568 2154.5203578431374 1120.3338823529411Q2155.9025147058824 1122.7427843137255 2157.442632352941 1125.7440392156864Q2158.2719264705884 1127.3631372549019 2159.0617303921567 1129.1401960784315Q2158.9432598039216 1127.4026274509804 2158.8642794117645 1125.6650588235293Q2158.6668284313723 1122.3873725490196 2158.5878480392157 1119.5045882352942Q2158.5088676470587 1116.6218039215687 2158.5088676470587 1114.647294117647V1081.1596078431373H2167.6311029411763V1140.0H2157.2056911764703L2137.3421225490197 1108.684274509804Q2135.762514705882 1106.1174117647058 2134.2421421568624 1103.5110588235293Q2132.721769607843 1100.904705882353 2130.9052205882354 1097.4690588235294Q2129.602044117647 1095.139137254902 2127.9434558823527 1092.0589019607844Q2128.1014166666664 1094.783725490196 2128.219887254902 1097.2716078431372Q2128.417338235294 1101.0626666666667 2128.5160637254903 1103.9651960784313Q2128.614789215686 1106.867725490196 2128.614789215686 1108.605294117647V1140.0Z M2189.09168627451 1140.0 2210.0214901960785 1081.1596078431373H2221.0787450980392L2242.403450980392 1140.0H2232.6493725490195L2227.2392156862743 1124.4803529411765H2204.0979607843137L2198.845764705882 1140.0ZM2224.5933725490195 1116.9772156862746 2221.1972156862744 1107.2626274509803Q2219.854549019608 1103.2741176470588 2218.2749411764703 1097.8639607843138Q2217.0112549019605 1093.6779999999999 2215.5106274509803 1088.2283529411764Q2214.0099999999998 1093.756980392157 2212.7858039215685 1097.982431372549Q2211.1667058823527 1103.471568627451 2209.9425098039214 1107.2626274509803L2206.6648235294115 1116.9772156862746Z M2263.8640343137254 1140.0V1081.1596078431373H2272.8677990196074V1132.2599215686275H2299.5236813725487V1140.0Z M2322.524382352941 1140.0V1081.1596078431373H2331.528147058823V1132.2599215686275H2358.184029411764V1140.0Z M2398.3629656862736 1140.0V1116.5823137254902L2376.682848039215 1081.1596078431373H2387.1872401960777L2398.2444950980384 1099.9174509803922Q2400.100534313725 1102.9976862745098 2401.5221813725484 1105.8409803921568Q2402.23300490196 1107.3021176470588 2402.943828431372 1109.0791764705882Q2403.694142156862 1107.223137254902 2404.444455882352 1105.7225098039216Q2405.8266127450975 1102.8792156862746 2407.5641813725483 1099.9174509803922L2418.502965686274 1081.1596078431373H2428.967867647058L2407.366730392156 1116.5823137254902V1140.0Z M2509.444210784313 1140.7898039215686Q2501.822602941176 1140.7898039215686 2495.800348039215 1137.176450980392Q2489.778093137254 1133.5630980392157 2486.3227009803913 1126.7905294117647Q2482.8673088235287 1120.0179607843138 2482.8673088235287 1110.619294117647Q2482.8673088235287 1101.1811372549018 2486.3227009803913 1094.408568627451Q2489.778093137254 1087.636 2495.800348039215 1084.0029019607841Q2501.822602941176 1080.3698039215685 2509.444210784313 1080.3698039215685Q2517.0658186274504 1080.3698039215685 2523.0485833333328 1084.0029019607841Q2529.031348039215 1087.636 2532.486740196078 1094.408568627451Q2535.9421323529405 1101.1811372549018 2535.9421323529405 1110.619294117647Q2535.9421323529405 1120.0179607843138 2532.486740196078 1126.7905294117647Q2529.031348039215 1133.5630980392157 2523.0485833333328 1137.176450980392Q2517.0658186274504 1140.7898039215686 2509.444210784313 1140.7898039215686ZM2509.444210784313 1132.5758431372549Q2514.4594656862737 1132.5758431372549 2518.4282303921564 1130.0682156862745Q2522.3969950980386 1127.560588235294 2524.707171568627 1122.6440588235293Q2527.017348039215 1117.7275294117646 2527.017348039215 1110.619294117647Q2527.017348039215 1103.4320784313725 2524.707171568627 1098.5155490196078Q2522.3969950980386 1093.599019607843 2518.4282303921564 1091.0913921568626Q2514.4594656862737 1088.5837647058825 2509.444210784313 1088.5837647058825Q2504.389465686274 1088.5837647058825 2500.4009558823523 1091.1111372549021Q2496.4124460784305 1093.6385098039216 2494.1022696078426 1098.5550392156863Q2491.792093137254 1103.471568627451 2491.792093137254 1110.619294117647Q2491.792093137254 1117.7275294117646 2494.1022696078426 1122.62431372549Q2496.4124460784305 1127.5210980392158 2500.4009558823523 1130.0484705882354Q2504.389465686274 1132.5758431372549 2509.444210784313 1132.5758431372549Z M2559.8511078431366 1140.0V1081.1596078431373H2580.938872549019Q2587.731186274509 1081.1596078431373 2592.272558823529 1083.6869803921568Q2596.8139313725483 1086.2143529411765 2599.0648725490187 1090.5187843137255Q2601.315813725489 1094.8232156862746 2601.315813725489 1100.272862745098Q2601.315813725489 1105.7225098039216 2599.0451274509796 1110.0466862745097Q2596.7744411764697 1114.370862745098 2592.23306862745 1116.8784901960785Q2587.6916960784306 1119.3861176470589 2580.859892156862 1119.3861176470589H2568.8548725490186V1140.0ZM2568.8548725490186 1111.7645098039216H2579.9911078431364Q2584.335029411764 1111.7645098039216 2587.0203627450974 1110.2638823529412Q2589.7056960784303 1108.7632549019609 2590.949637254901 1106.1569019607844Q2592.193578431372 1103.5505490196078 2592.193578431372 1100.272862745098Q2592.193578431372 1096.9556862745098 2590.949637254901 1094.3690784313726Q2589.7056960784303 1091.7824705882354 2587.000617647058 1090.3213333333333Q2584.2955392156855 1088.8601960784313 2579.9121274509794 1088.8601960784313H2568.8548725490186Z M2624.6719264705876 1140.0V1081.1596078431373H2661.713730392156V1088.8996862745098H2633.6756911764696V1106.4333333333334H2659.699730392156V1114.1339215686276H2633.6756911764696V1132.2599215686275H2661.9506715686266V1140.0Z M2686.3730196078423 1140.0V1081.1596078431373H2696.7589411764693L2718.9129411764693 1116.187411764706Q2720.0186666666655 1117.9249803921568 2721.4008235294104 1120.3338823529411Q2722.782980392156 1122.7427843137255 2724.3230980392145 1125.7440392156864Q2725.1523921568614 1127.3631372549019 2725.9421960784302 1129.1401960784315Q2725.823725490195 1127.4026274509804 2725.744745098038 1125.6650588235293Q2725.547294117646 1122.3873725490196 2725.4683137254888 1119.5045882352942Q2725.389333333332 1116.6218039215687 2725.389333333332 1114.647294117647V1081.1596078431373H2734.51156862745V1140.0H2724.086156862744L2704.222588235293 1108.684274509804Q2702.6429803921556 1106.1174117647058 2701.122607843136 1103.5110588235293Q2699.6022352941163 1100.904705882353 2697.785686274509 1097.4690588235294Q2696.4825098039205 1095.139137254902 2694.8239215686262 1092.0589019607844Q2694.98188235294 1094.783725490196 2695.1003529411755 1097.2716078431372Q2695.2978039215677 1101.0626666666667 2695.3965294117634 1103.9651960784313Q2695.4952549019595 1106.867725490196 2695.4952549019595 1108.605294117647V1140.0Z" fill="#B9B9C2"/></svg>